<svg xmlns="http://www.w3.org/2000/svg" viewBox="0 0 1024 1536" width="1024" height="1536" role="img" aria-label="Boss uyarı kartı"><title>Boss uyarı kartı</title><defs>
    <linearGradient id="zbs" x1="0" y1="0" x2="0" y2="1">
      <stop offset="0" stop-color="#160b09"/><stop offset="0.52" stop-color="#0c0605"/>
      <stop offset="1" stop-color="#060303"/></linearGradient>
    <radialGradient id="vbs" cx="0.5" cy="0.46" r="0.75">
      <stop offset="0.45" stop-color="#000" stop-opacity="0"/>
      <stop offset="1" stop-color="#000" stop-opacity="0.82"/></radialGradient>
    <linearGradient id="bbs" x1="0" y1="0" x2="0" y2="1">
      <stop offset="0" stop-color="#05070a" stop-opacity="0"/>
      <stop offset="0.35" stop-color="#05070a" stop-opacity="0.72"/>
      <stop offset="0.65" stop-color="#05070a" stop-opacity="0.72"/>
      <stop offset="1" stop-color="#05070a" stop-opacity="0"/></linearGradient>
    <filter id="gbs" x="0" y="0" width="100%" height="100%">
      <feTurbulence type="fractalNoise" baseFrequency="0.9" numOctaves="2" result="n"/>
      <feColorMatrix in="n" type="saturate" values="0"/></filter>
  </defs><rect width="1024" height="1536" fill="url(#zbs)"/><defs><radialGradient id="bk" cx="0.5" cy="0.42" r="0.62">
    <stop offset="0" stop-color="#e0563a" stop-opacity="0.34"/>
    <stop offset="1" stop-color="#e0563a" stop-opacity="0"/></radialGradient></defs><rect width="1024" height="1536" fill="url(#bk)"/><path d="M250,300 L284,266 L421,795 L411,815 Z" fill="#e0563a" opacity="0.5"/><path d="M400,250 L440,210 L537,837 L525,861 Z" fill="#e0563a" opacity="0.5"/><path d="M560,262 L596,226 L631,839 L621,860 Z" fill="#e0563a" opacity="0.5"/><path d="M-64,1224 L-20,1180 L24,1180 L-20,1224 Z" fill="#e0a12a" opacity="0.16"/><path d="M0,1224 L44,1180 L88,1180 L44,1224 Z" fill="#e0a12a" opacity="0.16"/><path d="M64,1224 L108,1180 L152,1180 L108,1224 Z" fill="#e0a12a" opacity="0.16"/><path d="M128,1224 L172,1180 L216,1180 L172,1224 Z" fill="#e0a12a" opacity="0.16"/><path d="M192,1224 L236,1180 L280,1180 L236,1224 Z" fill="#e0a12a" opacity="0.16"/><path d="M256,1224 L300,1180 L344,1180 L300,1224 Z" fill="#e0a12a" opacity="0.16"/><path d="M320,1224 L364,1180 L408,1180 L364,1224 Z" fill="#e0a12a" opacity="0.16"/><path d="M384,1224 L428,1180 L472,1180 L428,1224 Z" fill="#e0a12a" opacity="0.16"/><path d="M448,1224 L492,1180 L536,1180 L492,1224 Z" fill="#e0a12a" opacity="0.16"/><path d="M512,1224 L556,1180 L600,1180 L556,1224 Z" fill="#e0a12a" opacity="0.16"/><path d="M576,1224 L620,1180 L664,1180 L620,1224 Z" fill="#e0a12a" opacity="0.16"/><path d="M640,1224 L684,1180 L728,1180 L684,1224 Z" fill="#e0a12a" opacity="0.16"/><path d="M704,1224 L748,1180 L792,1180 L748,1224 Z" fill="#e0a12a" opacity="0.16"/><path d="M768,1224 L812,1180 L856,1180 L812,1224 Z" fill="#e0a12a" opacity="0.16"/><path d="M832,1224 L876,1180 L920,1180 L876,1224 Z" fill="#e0a12a" opacity="0.16"/><path d="M896,1224 L940,1180 L984,1180 L940,1224 Z" fill="#e0a12a" opacity="0.16"/><path d="M960,1224 L1004,1180 L1048,1180 L1004,1224 Z" fill="#e0a12a" opacity="0.16"/><path d="M1024,1224 L1068,1180 L1112,1180 L1068,1224 Z" fill="#e0a12a" opacity="0.16"/><path d="M1088,1224 L1132,1180 L1176,1180 L1132,1224 Z" fill="#e0a12a" opacity="0.16"/><path d="M1152,1224 L1196,1180 L1240,1180 L1196,1224 Z" fill="#e0a12a" opacity="0.16"/><path d="M1216,1224 L1260,1180 L1304,1180 L1260,1224 Z" fill="#e0a12a" opacity="0.16"/><path d="M-64,1284 L-20,1240 L24,1240 L-20,1284 Z" fill="#e0a12a" opacity="0.16"/><path d="M0,1284 L44,1240 L88,1240 L44,1284 Z" fill="#e0a12a" opacity="0.16"/><path d="M64,1284 L108,1240 L152,1240 L108,1284 Z" fill="#e0a12a" opacity="0.16"/><path d="M128,1284 L172,1240 L216,1240 L172,1284 Z" fill="#e0a12a" opacity="0.16"/><path d="M192,1284 L236,1240 L280,1240 L236,1284 Z" fill="#e0a12a" opacity="0.16"/><path d="M256,1284 L300,1240 L344,1240 L300,1284 Z" fill="#e0a12a" opacity="0.16"/><path d="M320,1284 L364,1240 L408,1240 L364,1284 Z" fill="#e0a12a" opacity="0.16"/><path d="M384,1284 L428,1240 L472,1240 L428,1284 Z" fill="#e0a12a" opacity="0.16"/><path d="M448,1284 L492,1240 L536,1240 L492,1284 Z" fill="#e0a12a" opacity="0.16"/><path d="M512,1284 L556,1240 L600,1240 L556,1284 Z" fill="#e0a12a" opacity="0.16"/><path d="M576,1284 L620,1240 L664,1240 L620,1284 Z" fill="#e0a12a" opacity="0.16"/><path d="M640,1284 L684,1240 L728,1240 L684,1284 Z" fill="#e0a12a" opacity="0.16"/><path d="M704,1284 L748,1240 L792,1240 L748,1284 Z" fill="#e0a12a" opacity="0.16"/><path d="M768,1284 L812,1240 L856,1240 L812,1284 Z" fill="#e0a12a" opacity="0.16"/><path d="M832,1284 L876,1240 L920,1240 L876,1284 Z" fill="#e0a12a" opacity="0.16"/><path d="M896,1284 L940,1240 L984,1240 L940,1284 Z" fill="#e0a12a" opacity="0.16"/><path d="M960,1284 L1004,1240 L1048,1240 L1004,1284 Z" fill="#e0a12a" opacity="0.16"/><path d="M1024,1284 L1068,1240 L1112,1240 L1068,1284 Z" fill="#e0a12a" opacity="0.16"/><path d="M1088,1284 L1132,1240 L1176,1240 L1132,1284 Z" fill="#e0a12a" opacity="0.16"/><path d="M1152,1284 L1196,1240 L1240,1240 L1196,1284 Z" fill="#e0a12a" opacity="0.16"/><path d="M1216,1284 L1260,1240 L1304,1240 L1260,1284 Z" fill="#e0a12a" opacity="0.16"/><rect y="1136" width="1024" height="6" fill="#e0563a" opacity="0.4"/><rect y="1290" width="1024" height="6" fill="#e0563a" opacity="0.4"/><rect y="560" width="1024" height="420" fill="url(#bbs)"/><rect width="1024" height="1536" fill="url(#vbs)"/><rect width="1024" height="1536" filter="url(#gbs)" opacity="0.055"/></svg>
